<svg id="visual" viewBox="0 0 1920 1080" width="1920" height="1080" xmlns="http://www.w3.org/2000/svg" xmlns:xlink="http://www.w3.org/1999/xlink" version="1.1"><g stroke-width="1" stroke-linejoin="bevel"><path d="M1195 595L1183 0L710 524Z" fill="#0d1e38" stroke="#0d1e38"></path><path d="M1183 0L717 0L710 524Z" fill="#1f8675" stroke="#1f8675"></path><path d="M588 1080L1374 1080L1195 595Z" fill="#0d1e38" stroke="#0d1e38"></path><path d="M1195 595L1920 493L1183 0Z" fill="#07344f" stroke="#07344f"></path><path d="M0 497L588 1080L710 524Z" fill="#0d1e38" stroke="#0d1e38"></path><path d="M710 524L588 1080L1195 595Z" fill="#0d1e38" stroke="#0d1e38"></path><path d="M1374 1080L1920 493L1195 595Z" fill="#007b76" stroke="#007b76"></path><path d="M1920 493L1920 0L1183 0Z" fill="#07344f" stroke="#07344f"></path><path d="M717 0L0 497L710 524Z" fill="#0b2944" stroke="#0b2944"></path><path d="M717 0L0 0L0 497Z" fill="#1f8675" stroke="#1f8675"></path><path d="M1374 1080L1920 1080L1920 493Z" fill="#0d132c" stroke="#0d132c"></path><path d="M0 497L0 1080L588 1080Z" fill="#033f59" stroke="#033f59"></path></g></svg>